<mxfile host="app.diagrams.net" modified="2023-08-29T19:50:59.577Z" agent="Mozilla/5.0 (Windows NT 10.0; Win64; x64) AppleWebKit/537.36 (KHTML, like Gecko) Chrome/116.0.0.0 Safari/537.36 Edg/116.0.1938.62" etag="UfKMqGSYGPM1zVKy3Fnv" version="21.7.0" type="github">
  <diagram name="Página-1" id="DuRhvyZn4W7pTwI9I8ts">
    <mxGraphModel dx="1379" dy="796" grid="1" gridSize="15" guides="1" tooltips="1" connect="1" arrows="1" fold="1" page="1" pageScale="1" pageWidth="827" pageHeight="1169" math="0" shadow="0">
      <root>
        <mxCell id="0" />
        <mxCell id="1" parent="0" />
        <mxCell id="uEuMXIHP0U5o520zB57w-1" value="Início" style="ellipse;whiteSpace=wrap;html=1;fontSize=20;fontStyle=1" vertex="1" parent="1">
          <mxGeometry x="354" y="370" width="120" height="80" as="geometry" />
        </mxCell>
        <mxCell id="uEuMXIHP0U5o520zB57w-3" value="1.Digitar o nome&lt;br&gt;2.Digitar a data de Nascimento&lt;br&gt;3.Mostrar o nome&lt;br&gt;4.Mostrar data do Nascimento" style="whiteSpace=wrap;html=1;" vertex="1" parent="1">
          <mxGeometry x="600" y="675" width="195" height="60" as="geometry" />
        </mxCell>
        <mxCell id="uEuMXIHP0U5o520zB57w-5" value="Seu nome é &quot;Nome&quot;&lt;br&gt;e você nasceu em &quot;DataNascimento&quot;" style="shape=dataStorage;whiteSpace=wrap;html=1;fixedSize=1;rotation=0;" vertex="1" parent="1">
          <mxGeometry x="316" y="750" width="196" height="165" as="geometry" />
        </mxCell>
        <mxCell id="uEuMXIHP0U5o520zB57w-7" value="" style="endArrow=classic;html=1;rounded=0;exitX=0.5;exitY=1;exitDx=0;exitDy=0;entryX=0.5;entryY=0;entryDx=0;entryDy=0;" edge="1" parent="1" source="uEuMXIHP0U5o520zB57w-1">
          <mxGeometry width="50" height="50" relative="1" as="geometry">
            <mxPoint x="390" y="680" as="sourcePoint" />
            <mxPoint x="414" y="510" as="targetPoint" />
          </mxGeometry>
        </mxCell>
        <mxCell id="uEuMXIHP0U5o520zB57w-8" value="" style="endArrow=classic;html=1;rounded=0;exitX=0.5;exitY=1;exitDx=0;exitDy=0;entryX=0.5;entryY=0;entryDx=0;entryDy=0;" edge="1" parent="1">
          <mxGeometry width="50" height="50" relative="1" as="geometry">
            <mxPoint x="414" y="570" as="sourcePoint" />
            <mxPoint x="414" y="630" as="targetPoint" />
          </mxGeometry>
        </mxCell>
        <mxCell id="uEuMXIHP0U5o520zB57w-9" value="" style="endArrow=classic;html=1;rounded=0;exitX=0.5;exitY=1;exitDx=0;exitDy=0;entryX=0.5;entryY=0;entryDx=0;entryDy=0;" edge="1" parent="1" target="uEuMXIHP0U5o520zB57w-5">
          <mxGeometry width="50" height="50" relative="1" as="geometry">
            <mxPoint x="414" y="690" as="sourcePoint" />
            <mxPoint x="444" y="540" as="targetPoint" />
          </mxGeometry>
        </mxCell>
        <mxCell id="uEuMXIHP0U5o520zB57w-10" value="Fim" style="ellipse;whiteSpace=wrap;html=1;fontSize=20;fontStyle=1" vertex="1" parent="1">
          <mxGeometry x="354" y="975" width="120" height="80" as="geometry" />
        </mxCell>
        <mxCell id="uEuMXIHP0U5o520zB57w-11" value="" style="endArrow=classic;html=1;rounded=0;exitX=0.5;exitY=1;exitDx=0;exitDy=0;entryX=0.5;entryY=0;entryDx=0;entryDy=0;" edge="1" parent="1" source="uEuMXIHP0U5o520zB57w-5" target="uEuMXIHP0U5o520zB57w-10">
          <mxGeometry width="50" height="50" relative="1" as="geometry">
            <mxPoint x="459" y="495" as="sourcePoint" />
            <mxPoint x="459" y="555" as="targetPoint" />
          </mxGeometry>
        </mxCell>
        <mxCell id="uEuMXIHP0U5o520zB57w-12" value="var Nome" style="html=1;strokeWidth=2;shape=manualInput;whiteSpace=wrap;rounded=1;size=26;arcSize=11;" vertex="1" parent="1">
          <mxGeometry x="364" y="495" width="100" height="75" as="geometry" />
        </mxCell>
        <mxCell id="uEuMXIHP0U5o520zB57w-13" value="var DataNascimento" style="html=1;strokeWidth=2;shape=manualInput;whiteSpace=wrap;rounded=1;size=26;arcSize=11;" vertex="1" parent="1">
          <mxGeometry x="364" y="615" width="100" height="75" as="geometry" />
        </mxCell>
      </root>
    </mxGraphModel>
  </diagram>
</mxfile>
